<svg width="300" height="226" viewBox="0 0 300 226" xmlns="http://www.w3.org/2000/svg">
    <g fill="#FFF" fill-rule="evenodd">
        <path d="M50.112 51.675c47.142 26.18 91.156 53.62 132.042 82.323 40.886 28.702 79.272 59.107 115.159 91.213 2.4-53.774 2.4-79.264 0-76.469-1.643 1.914-38.501 4.078-115.22-30.317-23.544-10.556-65.846-35.118-126.908-73.687"/>
        <g fill-rule="nonzero">
            <path d="m56.893 23.187-3.346-2.615-21.937 6.026a236.464 236.464 0 0 0-8.617-6.656c-3.562-2.523-7.37-3.372-8.481-1.95-1.112 1.423.633 4.912 3.943 7.758 2.84 2.36 5.689 4.592 8.543 6.75l-.54 22.744 3.346 2.615 5.351-19.363c4.668 3.351 9.326 6.63 13.961 9.99l-.993 6.393 2.21 1.726 3.995-7.504 6.315-5.691-2.21-1.727-5.961 2.508c-4.383-3.683-8.691-7.41-13.071-11.129l17.492-9.875z"/>
            <path d="m22.018 43.255 2.126-2.722 4.728 3.694-2.126 2.722-4.728-3.694zM37.13 23.912l2.126-2.721 4.729 3.694-2.127 2.721-4.728-3.694z"/>
        </g>
    </g>
</svg>
