<svg width="709" height="213" viewBox="0 0 709 213" xmlns="http://www.w3.org/2000/svg">
    <g stroke="#000" fill="none" fill-rule="evenodd" opacity=".082">
        <path d="M50.61 112.486c42.992-19.03 95.74-12.167 140.396 4.616 44.656 16.783 84.237 42.572 127.24 62.492 43.001 19.919 92.398 34.107 139.46 24.882 39.394-7.723 72.48-31 99.582-57.215 27.103-26.214 49.677-55.909 77.267-81.724 15.882-14.86 38.075-29.393 60.378-23.243"/>
        <path d="M692.79 41.705c-17.558-5.288-35.396 2.087-50.194 12.467-3.839 2.685-7.476 5.57-10.858 8.488-9.46 8.178-18.374 16.89-27.057 25.802-17.495 17.955-34.08 36.72-52.563 54.032-15.993 14.978-33.862 29.037-53.756 39.756-14.493 7.81-30.102 13.837-46.792 17.141-32.97 6.526-67.118 1.876-99.196-8.792-13.978-4.647-27.531-10.418-40.528-16.673-18.552-8.932-36.5-18.875-54.795-28.168-22.73-11.551-45.583-22.005-69.449-29.909-1.267-.42-2.538-.832-3.811-1.237-44.557-14.165-96.085-18.233-137.412 2.293"/>
        <path d="M694.67 41.08c-17.45-5.72-35.532.904-50.702 10.709-3.948 2.537-7.702 5.286-11.214 8.084-9.796 7.838-19.051 16.322-28.047 25.049-18.13 17.582-35.259 36.151-54.172 53.355-16.367 14.887-34.495 28.913-54.614 39.658-14.632 7.818-30.4 13.881-47.213 17.247-33.271 6.667-67.766 2.272-99.93-8.81-14.01-4.823-27.51-10.877-40.49-17.374-18.54-9.29-36.512-19.503-55.13-28.522-23.115-11.208-46.402-20.382-70.318-26.93-1.27-.347-2.542-.688-3.817-1.02-44.597-11.628-95.066-12.927-134.86 9.21"/>
        <path d="M696.524 40.487c-17.345-6.115-35.668-.284-51.211 8.881-4.056 2.372-7.926 4.967-11.568 7.627-10.133 7.448-19.728 15.648-29.036 24.133-18.76 17.096-36.437 35.346-55.775 52.33-16.741 14.7-35.126 28.6-55.47 39.3-14.77 7.774-30.696 13.831-47.63 17.238-33.572 6.76-68.414 2.645-100.668-8.783-14.04-4.97-27.49-11.268-40.452-17.967-18.53-9.586-36.525-20.008-55.468-28.699-23.5-10.794-47.223-18.637-71.189-23.792-1.273-.273-2.547-.54-3.823-.798-44.637-9.028-94.047-7.56-132.302 16.04"/>
        <path d="M697.394 39.003c-17.237-6.584-35.78-1.44-51.721 7.166a139.22 139.22 0 0 0-11.923 7.265c-10.472 7.15-20.41 15.169-30.034 23.517-19.396 16.823-37.62 34.98-57.39 51.957-17.118 14.695-35.762 28.645-56.335 39.437-14.908 7.826-30.995 13.957-48.05 17.45-33.874 6.942-69.065 3.064-101.404-8.843-14.07-5.175-27.468-11.793-40.411-18.774-18.516-10-36.534-20.753-55.8-29.216-23.884-10.51-48.041-17.106-72.057-20.921-1.275-.203-2.55-.397-3.828-.584-44.676-6.52-93.026-2.248-129.745 23.117"/>
        <path d="M698.212 37.517c-17.104-6.97-35.862-2.614-52.152 5.345a139.257 139.257 0 0 0-12.26 6.804c-10.793 6.757-21.055 14.487-30.976 22.588-20 16.324-38.743 34.15-58.91 50.895-17.465 14.496-36.338 28.31-57.104 39.048-15.025 7.777-31.245 13.896-48.396 17.426-34.123 7.03-69.608 3.434-101.986-8.806-14.078-5.317-27.405-12.173-40.311-19.347-18.477-10.287-36.492-21.238-56.052-29.367-24.235-10.091-48.79-15.357-72.82-17.785a313.122 313.122 0 0 0-3.828-.362c-44.648-3.928-91.863 3.09-126.987 29.89"/>
        <path d="M699.089 37.133c-16.997-7.396-35.996-3.798-52.66 3.566a136.343 136.343 0 0 0-12.615 6.387c-11.148 6.385-21.737 13.897-31.971 21.8-20.634 15.93-39.924 33.534-60.52 50.147-17.841 14.386-36.972 28.15-57.964 38.9-15.163 7.774-31.544 13.922-48.816 17.511-34.424 7.162-70.256 3.826-102.722-8.817-14.109-5.488-27.384-12.62-40.272-20.029-18.464-10.634-36.502-21.843-56.387-29.688-24.62-9.733-49.611-13.703-73.69-14.762a288.024 288.024 0 0 0-3.834-.142c-44.687-1.37-90.84 8.43-124.425 36.818"/>
        <path d="M699.965 36.788c-16.863-7.82-36.079-4.981-53.09 1.785a135.542 135.542 0 0 0-12.952 5.967c-11.468 6.029-22.383 13.3-32.916 21.002-21.237 15.527-41.045 32.9-62.04 49.378-18.19 14.27-37.55 27.977-58.737 38.737-15.279 7.768-31.794 13.94-49.162 17.588-34.672 7.292-70.8 4.219-103.304-8.82-14.118-5.658-27.32-13.063-40.17-20.705-18.425-10.975-36.46-22.44-56.638-29.996-24.969-9.369-50.357-12.041-74.45-11.727-1.279.017-2.557.042-3.834.076-44.66 1.195-89.681 13.776-121.677 43.745"/>
        <path d="M700.815 36.53c-16.782-8.185-36.271-6.13-53.68-.008a135.698 135.698 0 0 0-13.326 5.504c-11.823 5.63-23.095 12.604-33.956 20.05-21.904 15.007-42.286 32.02-63.739 48.237-18.59 14.047-38.237 27.592-59.68 38.277-15.439 7.702-32.138 13.851-49.652 17.527-35.025 7.36-71.555 4.565-104.196-8.777-14.171-5.786-27.343-13.412-40.195-21.23-18.442-11.237-36.528-22.875-57.062-30.091-25.394-8.944-51.257-10.31-75.435-8.64-1.284.09-2.565.186-3.845.294-44.764 3.725-88.786 18.968-119.282 50.28"/>
        <path d="M700.68 35.398c-16.649-8.655-36.355-7.348-54.11-1.784a134.515 134.515 0 0 0-13.663 5.118c-12.143 5.31-23.743 12.084-34.903 19.373-22.508 14.695-43.41 31.581-65.262 47.758-18.941 14.016-38.819 27.586-60.457 38.346-15.556 7.743-32.392 13.955-50 17.713-35.276 7.536-72.1 4.992-104.778-8.823-14.18-5.987-27.279-13.93-40.091-22.025-18.402-11.644-36.483-23.603-57.31-30.57-25.741-8.63-52.001-8.703-76.193-5.648-1.285.163-2.567.333-3.846.514-44.736 6.317-87.63 24.437-116.541 57.516"/>
        <path d="M701.604 35.271c-16.516-9.06-36.44-8.522-54.54-3.561a133.839 133.839 0 0 0-13.998 4.686c-12.46 4.948-24.387 11.463-35.846 18.536-23.108 14.262-44.529 30.883-66.777 46.89-19.288 13.87-39.394 27.355-61.227 38.1-15.67 7.72-32.64 13.944-50.345 17.752-35.525 7.649-72.641 5.372-105.359-8.812-14.189-6.144-27.217-14.345-39.992-22.654-18.363-11.963-36.44-24.154-57.561-30.818-26.09-8.25-52.746-7.026-76.952-2.607-1.285.234-2.567.478-3.845.732-44.71 8.864-86.475 29.722-113.8 64.311"/>
        <path d="M701.641 33.318c-16.433-9.464-36.632-9.694-55.13-5.337a135.794 135.794 0 0 0-14.375 4.257c-12.806 4.606-25.104 10.84-36.894 17.697-23.778 13.826-45.778 30.18-68.488 46.012-19.691 13.722-40.086 27.12-62.176 37.848-15.833 7.697-32.987 13.931-50.839 17.787-35.877 7.758-73.396 5.745-106.251-8.805-14.24-6.302-27.236-14.758-40.012-23.283-18.378-12.28-36.506-24.7-57.983-31.06-26.515-7.874-53.647-5.36-77.938.416-1.29.307-2.575.624-3.856.95-44.813 11.399-85.57 34.982-111.388 71.07"/>
        <path d="M702.771 33.418c-16.299-9.923-36.716-10.923-55.56-7.138a134.676 134.676 0 0 0-14.71 3.853c-13.126 4.27-25.75 10.285-37.837 16.968-24.381 13.478-46.899 29.665-70.008 45.423-20.04 13.661-40.663 27.055-62.948 37.834-15.95 7.722-33.239 14.006-51.187 17.937-36.127 7.92-73.941 6.166-106.832-8.836-14.249-6.495-27.173-15.257-39.911-24.046-18.338-12.668-36.461-25.39-58.23-31.485-26.863-7.537-54.393-3.709-78.697 3.466-1.29.38-2.576.772-3.856 1.172-44.787 14.017-84.42 40.481-108.657 78.293"/>
        <path d="M702.805 31.595c-16.168-10.314-36.802-12.081-55.988-8.9a133.876 133.876 0 0 0-15.047 3.42c-13.445 3.902-26.392 9.653-38.776 16.113-24.981 13.027-48.014 28.93-71.518 44.496-20.387 13.499-41.24 26.79-63.718 37.54-16.065 7.689-33.488 13.977-51.53 17.952-36.376 8.02-74.483 6.533-107.415-8.817-14.258-6.643-27.111-15.65-39.812-24.642-18.3-12.968-36.42-25.905-58.483-31.69-27.21-7.15-55.135-2.039-79.454 6.483-1.29.452-2.576.915-3.856 1.387-44.76 16.53-83.268 45.685-105.921 84.947"/>
        <path d="M705.896 30.86c-16.06-10.76-36.946-13.332-56.5-10.704-5.222.687-10.361 1.719-15.402 3.007-13.784 3.555-27.075 9.075-39.773 15.348-25.62 12.652-49.201 28.359-73.137 43.823-20.762 13.412-41.875 26.675-64.58 37.458-16.203 7.7-33.787 14.027-51.952 18.07-36.677 8.166-75.132 6.942-108.15-8.84-14.288-6.826-27.089-16.126-39.771-25.37-18.286-13.34-36.43-26.56-58.817-32.068-27.597-6.8-55.958-.374-80.327 9.542-1.294.526-2.58 1.063-3.862 1.61-44.798 19.138-82.24 51.144-103.348 92.077"/>
        <path d="M706.986 30.283c-15.951-11.201-37.08-14.546-57.009-12.51-5.332.533-10.59 1.424-15.76 2.59-14.124 3.204-27.758 8.487-40.77 14.568-26.257 12.265-50.39 27.764-74.756 43.113-21.14 13.315-42.511 26.54-65.444 37.348-16.342 7.705-34.085 14.067-52.371 18.174-36.98 8.309-75.784 7.347-108.888-8.856-14.318-7.005-27.066-16.594-39.73-26.085-18.272-13.703-36.438-27.2-59.15-32.424-27.984-6.445-56.783 1.296-81.201 12.605-1.297.6-2.586 1.212-3.868 1.833-44.837 21.744-81.21 56.592-100.77 99.173"/>
        <path d="M707.04 28.84c-15.843-11.636-37.216-15.752-57.52-14.314-5.44.38-10.817 1.128-16.117 2.17-14.462 2.85-28.44 7.892-41.77 13.776-26.893 11.868-51.575 27.146-76.372 42.37-21.517 13.208-43.149 26.385-66.308 37.21-16.482 7.704-34.384 14.096-52.791 18.264-37.282 8.446-76.435 7.748-109.626-8.867-14.348-7.18-27.043-17.053-39.687-26.784-18.26-14.058-36.449-27.821-59.487-32.759-28.37-6.084-57.607 2.97-82.074 15.67-1.3.673-2.59 1.358-3.874 2.054-44.875 24.34-80.177 62.014-98.186 106.216"/>
        <path d="M708.126 28.432c-15.71-12.063-37.297-16.95-57.947-16.11-20.65.84-40.536 6.955-59.16 14.72-51.352 21.414-94.696 55.331-144.96 78.648-50.262 23.318-113.73 34.88-163.342 9.475-35.107-17.977-59.853-52.678-99.325-60.54-28.718-5.717-58.35 4.646-82.832 18.729-46.753 26.893-82.436 68.373-99.34 115.482"/>
    </g>
</svg>
